<svg width="165" height="45" viewBox="0 0 165 45" fill="none" xmlns="http://www.w3.org/2000/svg">
<path d="M44.0386 38.5332H56.7241V35.3848H47.5317V31.6849H55.5291V28.5365H47.5317V24.9515H56.6092V21.8031H44.0386V38.5332ZM60.242 38.5332H63.7581V31.9836H71.8474V28.7663H63.7581V25.0204H72.9045V21.8031H60.242V38.5332ZM83.049 38.786C87.5302 38.786 90.3569 36.3041 90.3569 31.2482V21.8031H86.8408V31.4091C86.8408 34.1438 85.416 35.5457 83.0949 35.5457C80.7738 35.5457 79.372 34.0749 79.372 31.2712V21.8031H75.8329V31.3861C75.8329 36.2811 78.5906 38.786 83.049 38.786ZM94.3543 38.5332H97.8245V27.6402L106.144 38.5332H109.154V21.8031H105.661V32.3513L97.5946 21.8031H94.3543V38.5332ZM113.43 38.5332H119.888C125.151 38.5332 128.782 34.8792 128.782 30.1681V30.1222C128.782 25.4111 125.151 21.8031 119.888 21.8031H113.43V38.5332ZM119.888 24.9974C122.99 24.9974 125.082 27.1346 125.082 30.1681V30.2141C125.082 33.2476 122.99 35.3388 119.888 35.3388H116.946V24.9974H119.888ZM132.304 38.5332H144.99V35.3848H135.797V31.6849H143.795V28.5365H135.797V24.9515H144.875V21.8031H132.304V38.5332ZM152.024 29.9613V24.9974H155.816C157.677 24.9974 158.826 25.8477 158.826 27.4564V27.5023C158.826 28.9731 157.723 29.9613 155.885 29.9613H152.024ZM148.508 38.5332H152.024V33.0867H155.08L158.78 38.5332H162.917L158.734 32.4892C160.894 31.7308 162.388 30.0302 162.388 27.3185V27.2725C162.388 25.7328 161.906 24.4229 160.986 23.5037C159.883 22.4006 158.229 21.8031 156.114 21.8031H148.508V38.5332Z" fill="#3077B8"/>
<path d="M3 29.4853L6.36524 22.194C6.60628 21.6717 7.35366 21.6867 7.57359 22.2182L14.3487 38.5913C14.5779 39.1453 15.3677 39.1308 15.5764 38.5687L23.1127 18.279C23.315 17.7341 24.0721 17.6984 24.3249 18.2217L32.5064 35.1596C32.7713 35.7081 33.5744 35.6351 33.7362 35.048L43.1168 1" stroke="#3077B8" stroke-width="4.86264"/>
</svg>
